<?xml version="1.0" standalone="no"?><!DOCTYPE svg PUBLIC "-//W3C//DTD SVG 1.1//EN" "http://www.w3.org/Graphics/SVG/1.1/DTD/svg11.dtd">
<svg t="1695553383036" class="icon" viewBox="0 0 1024 1024" version="1.1" xmlns="http://www.w3.org/2000/svg" p-id="3506"
     width="200" height="200"><path d="M924.752 528.748l-154.864 69.528 56.96 32.276c-58.716 100.056-159.236 170.036-275.892 182.9v-387.436h155.832V348.1h-155.832V302.464c47.976-16.96 81.584-64.332 77.596-118.968-4.2-57.568-51.008-104.032-108.604-107.84-68.148-4.508-124.824 49.432-124.824 116.612 0 50.884 32.528 94.152 77.916 110.2v45.636H317.208v77.916h155.832v387.436c-116.66-12.864-217.176-82.844-275.892-182.9l56.96-32.276-154.864-69.528-15.788 166.224 47.912-27.148c62.392 108.736 165.656 188.54 287.356 215.916 28.912 6.504 54.892 22.312 74.74 44.316l18.536 20.552 18.536-20.552c19.844-22.004 45.828-37.816 74.74-44.316 121.7-27.372 224.964-107.176 287.356-215.916l47.912 27.148-15.792-166.228zM512 153.308c21.516 0 38.96 17.444 38.96 38.96s-17.44 38.96-38.96 38.96-38.96-17.444-38.96-38.96 17.444-38.96 38.96-38.96z" fill="#94D3CC" p-id="3507"></path><path d="M473.04 414.056v411.876l36.004 3.332V414.056zM431.124 192.264c0-57.928 45.124-105.984 100.428-115.232-3.812-0.644-7.68-1.12-11.6-1.38-68.144-4.508-124.824 49.432-124.824 116.608l0.04 0.004h-0.04c0 50.884 32.528 94.152 77.916 110.2V360.06h36V277.004l-24-8.484c-32.252-11.4-53.92-42.044-53.92-76.256zM426.628 848.616c-109.468-24.62-205.704-97.044-264.032-198.708l-17.82-31.06-18.948 10.736 7.164-85.688-33.748-15.152-15.788 166.224 47.912-27.148c62.392 108.736 165.656 188.54 287.356 215.916 28.912 6.504 54.892 22.312 74.74 44.316l18.536 20.552v-53.208c-23.992-23.472-53.284-39.564-85.372-46.78zM931.588 667.824a475.652 475.652 0 0 1-9.928 16.448l18.88 10.7-2.216-23.332-6.736-3.816zM317.208 348.1h38.96v77.916h-38.96z" fill="#E8E6F4" p-id="3508"></path><path d="M512 960.608c-3.4 0-6.636-1.44-8.912-3.964l-18.536-20.552c-18.688-20.72-42.364-34.776-68.46-40.648-118.812-26.724-223.548-103.472-289.064-211.372l-37.66 21.34a11.992 11.992 0 1 1-17.856-11.576l15.788-166.228a12 12 0 0 1 16.86-9.82l154.864 69.528a12 12 0 0 1 1.004 21.392l-46.192 26.172c56.272 89.116 147.192 149.736 247.208 164.896v-361.764H317.208a12 12 0 0 1-12-12V348.096a12 12 0 0 1 12-12h143.836v-25.452c-46.944-20.212-77.916-66.752-77.916-118.38a129.36 129.36 0 0 1 40.824-94.104c26.304-24.62 60.644-36.908 96.792-34.48 63.648 4.212 115.14 55.348 119.78 118.94 4.012 55.036-27.564 106.476-77.568 128.024v25.452h143.836a12 12 0 0 1 12 12v77.916a12 12 0 0 1-12 12h-143.836v361.764c100.016-15.16 190.932-75.776 247.208-164.896l-46.192-26.172a12.004 12.004 0 0 1 1-21.392l154.868-69.528a11.98 11.98 0 0 1 10.948 0.58 11.992 11.992 0 0 1 5.912 9.24l15.788 166.228a12 12 0 0 1-17.856 11.576l-37.66-21.34c-65.516 107.9-170.248 184.648-289.064 211.372-26.096 5.872-49.772 19.928-68.46 40.648l-18.536 20.552a11.996 11.996 0 0 1-8.912 3.964z m-380.64-304.788a12 12 0 0 1 10.42 6.032c61.668 107.48 163.572 184.088 279.58 210.18 30.972 6.968 58.984 23.564 81.016 47.992l9.624 10.668 9.624-10.668c22.032-24.428 50.044-41.024 81.016-47.992 116.008-26.088 217.912-102.7 279.58-210.18a12 12 0 0 1 16.324-4.468l27.876 15.792-12.028-126.624-117.968 52.964 36.344 20.592a12.008 12.008 0 0 1 4.432 16.516c-61.816 105.336-168.328 175.9-284.924 188.752a12 12 0 0 1-13.316-11.924v-387.436a12 12 0 0 1 12-12h143.836v-53.92H550.96a12 12 0 0 1-12-12V302.464a12 12 0 0 1 8-11.312c44.436-15.716 73.072-59.624 69.628-106.784-3.772-51.724-45.66-93.312-97.428-96.744-29.42-1.944-57.404 8.02-78.808 28.056-21.42 20.056-33.224 47.252-33.224 76.584 0 44.36 28.096 84.096 69.916 98.888a12 12 0 0 1 8 11.312v45.632a12 12 0 0 1-12 12H329.208v53.916h143.836a12 12 0 0 1 12 12v387.436a12 12 0 0 1-3.992 8.936 11.9 11.9 0 0 1-9.324 2.988c-116.596-12.856-223.112-83.416-284.924-188.752a12.008 12.008 0 0 1 4.432-16.516l36.344-20.592-117.968-52.964-12.028 126.624 27.876-15.792c1.864-1.056 3.896-1.56 5.9-1.56zM512 243.224c-28.096 0-50.956-22.86-50.956-50.956 0-28.1 22.86-50.96 50.956-50.96s50.956 22.86 50.956 50.96c0 28.096-22.86 50.956-50.956 50.956z m0-77.92a26.988 26.988 0 0 0-26.956 26.96c0 14.864 12.092 26.956 26.956 26.956s26.956-12.092 26.956-26.956a26.988 26.988 0 0 0-26.956-26.96z" fill="#44294F" p-id="3509"></path><path d="M594.98 859.112l-5.048-23.46c64.264-13.828 125.08-45.016 175.856-90.196l15.952 17.928c-53.868 47.932-118.448 81.032-186.76 95.728z m210.908-118.944l-17.288-16.648a414.972 414.972 0 0 0 27.94-32.184l18.908 14.78a439.812 439.812 0 0 1-29.56 34.052z" fill="#44294F" p-id="3510"></path></svg>
